<svg xmlns="http://www.w3.org/2000/svg" viewBox="0 0 512 512">
  <rect width="512" height="512" rx="80" fill="#0A192F"/>
  <defs>
    <linearGradient id="g" x1="0" y1="0" x2="1" y2="1">
      <stop offset="0%" stop-color="#0A192F"/>
      <stop offset="100%" stop-color="#152B52"/>
    </linearGradient>
  </defs>
  <rect width="512" height="512" rx="80" fill="url(#g)"/>
  <path d="M256 70C256 70 164 162 164 228C164 276 205 314 256 314C307 314 348 276 348 228C348 162 256 70 256 70Z" fill="#C9A84C" opacity="0.9"/>
  <path d="M256 134C256 134 204 186 204 228C204 254 228 274 256 274C284 274 308 254 308 228C308 186 256 134 256 134Z" fill="#fff" opacity="0.85"/>
  <text x="256" y="430" text-anchor="middle" font-family="Georgia,serif" font-size="76" font-weight="700" fill="#C9A84C" letter-spacing="6">B VI</text>
</svg>
