<svg xmlns="http://www.w3.org/2000/svg" viewBox="0 0 512 512">
  <rect width="512" height="512" rx="80" fill="#0A192F"/>
  <defs>
    <linearGradient id="g" x1="0" y1="0" x2="1" y2="1">
      <stop offset="0%" stop-color="#0A192F"/>
      <stop offset="100%" stop-color="#152B52"/>
    </linearGradient>
  </defs>
  <rect width="512" height="512" rx="80" fill="url(#g)"/>
  <path d="M256 214C256 214 164 306 164 372C164 420 205 458 256 458C307 458 348 420 348 372C348 306 256 214 256 214Z" fill="#C9A84C" opacity="0.9"/>
  <path d="M256 278C256 278 204 330 204 372C204 398 228 418 256 418C284 418 308 398 308 372C308 330 256 278 256 278Z" fill="#fff" opacity="0.85"/>
</svg>
